:SAMPLES-PER-SECOND 30
:FULLY-SPECIFIED
:DEGREES
101
root  34.8451269 36.57940241 -14.30710319 10.19496155 -2.949471712 3.410712957
lowerback  -8.910860062 0.477385968 -0.02529424243
upperback  -3.951270103 1.198719978 -4.158189774
thorax  0.9867290258 0.778801024 -4.177080154
lowerneck  -11.63169956 -7.92013979 -5.097539902
upperneck  11.68039989 -11.20670033 7.758190155
head  6.180490017 -5.222829819 2.231849909
lclavicle  0 -4.497500157e-015 -2.743230041e-014
lhumerus  -48.44860077 31.14619827 61.49129868
lradius  -0.05332124233 -6.507048965e-006 28.8789978
lwrist  3.192251654e-007 -3.790274832e-007 -30.26399994
lhand  -3.515580018e-031 -37.03239822 -10.66709995
lfingers  90 7.125020027 -90
lthumb  94.87641144 -25.49836922 101.209877
rclavicle  0 -4.497500157e-015 -2.743230041e-014
rhumerus  31.5007 -20.57320023 -45.55979919
rradius  -5.16745672e-007 2.214343908e-008 73.71109772
rwrist  0.0006954420824 -0.004670973402 -173.8430023
rhand  -3.11017567e-031 4.327320099 -6.290150166
rfingers  -90 -7.125020027 -90
rthumb  -84.45665741 -9.601380348 -59.8058815
rfemur  -11.98356247 15.17666435 12.73482227
rtibia  -0.3544306457 -0.7873217463 18.86218262
rfoot  0.8089390397 -21.10738754 -36.81851196
rtoes  4.193254948 19.57525635 -102.3446045
lfemur  -6.187434673 -16.13443756 -21.26332474
ltibia  5.326439857 0.409956336 9.958016396
lfoot  0.5201514959 -23.81271172 35.36658096
ltoes  -8.447187424 -18.19514656 -115.4358444
102
root  34.84546331 36.57942644 -14.30547819 10.19149399 -2.86122179 3.45049715
lowerback  -8.931109428 0.5098160505 0.04381737113
upperback  -3.955699921 1.239230037 -4.184239864
thorax  0.9978460073 0.7991960049 -4.239480019
lowerneck  -11.62230015 -7.972710133 -5.118730068
upperneck  11.6875 -11.2840004 7.797369957
head  6.189909935 -5.259359837 2.239180088
lclavicle  0 -4.497500157e-015 -2.743230041e-014
lhumerus  -48.41930008 31.04929924 61.53480148
lradius  -0.05544179305 -6.507048965e-006 28.87999916
lwrist  3.192251654e-007 -3.790274832e-007 -30.19199944
lhand  -3.517361278e-031 -36.99560165 -10.65089989
lfingers  90 7.125020027 -90
lthumb  94.85567474 -25.48372269 101.1690292
rclavicle  0 -4.497500157e-015 -2.743230041e-014
rhumerus  32.60010147 -20.72389984 -45.54439926
rradius  -5.16745672e-007 2.214343908e-008 72.49130249
rwrist  0.0006954420824 -0.004670973402 -173.5149994
rhand  -3.110928633e-031 4.159510136 -6.280340195
rfingers  -90 -7.125020027 -90
rthumb  -84.49314117 -9.600628853 -59.9691925
rfemur  -11.99072838 15.15610695 12.7210474
rtibia  -0.3825621009 -0.7697419524 18.92152786
rfoot  0.7828541994 -21.05730438 -36.86190414
rtoes  4.16594553 19.57575989 -102.263092
lfemur  -6.079603195 -16.15550995 -21.3550663
ltibia  5.434791088 0.4031583965 9.779590607
lfoot  0.5146771669 -23.73480225 35.32250977
ltoes  -8.460709572 -18.1890316 -115.4791565
103
root  34.84612713 36.57944446 -14.3038607 10.19164371 -2.777435541 3.476256371
lowerback  -8.939391136 0.5274839401 0.06511909515
upperback  -3.957726479 1.263329983 -4.199440002
thorax  0.9986330271 0.8117589951 -4.265100002
lowerneck  -11.60039997 -8.004890442 -5.097330093
upperneck  11.66149998 -11.33209991 7.804629803
head  6.180399895 -5.282770157 2.234189987
lclavicle  0 -4.497500157e-015 -2.743230041e-014
lhumerus  -48.41640091 30.85580063 61.66239929
lradius  -0.05756908283 -6.507048965e-006 28.98829842
lwrist  3.192251654e-007 -3.790274832e-007 -29.96169853
lhand  -3.51417593e-031 -37.01330185 -10.68669987
lfingers  90 7.125020027 -90
lthumb  94.87164307 -25.51828384 101.191185
rclavicle  0 -4.497500157e-015 -2.743230041e-014
rhumerus  33.75360489 -20.84190178 -45.77389908
rradius  -5.16745672e-007 2.214343908e-008 71.41470337
rwrist  0.0006954420824 -0.004670973402 -172.8589935
rhand  -3.119979203e-031 4.011980057 -6.147079945
rfingers  -90 -7.125020027 -90
rthumb  -84.46208191 -9.708098412 -60.10224533
rfemur  -11.98185253 15.15959263 12.71807289
rtibia  -0.4043464661 -0.7663779259 18.93510246
rfoot  0.7623465657 -21.02561378 -36.947052
rtoes  4.170663357 19.57618523 -102.2771759
lfemur  -6.136465073 -16.20921326 -21.36013222
ltibia  5.409697056 0.3774353862 9.864084244
lfoot  0.507519424 -23.72809029 35.22637558
ltoes  -8.470198631 -18.18473244 -115.5095596
104
root  34.84819968 36.57945348 -14.30254508 10.20066261 -2.702560425 3.504899263
lowerback  -8.936950684 0.5400229692 0.08081486821
upperback  -3.958839893 1.280509949 -4.21502018
thorax  0.9995051622 0.8207290173 -4.28869009
lowerneck  -11.60289955 -8.037739754 -5.060530186
upperneck  11.66220188 -11.38517761 7.80667448
head  6.182869911 -5.307380199 2.222939968
lclavicle  0 -4.497500157e-015 -2.743230041e-014
lhumerus  -48.39870071 30.66899872 61.77780151
lradius  -0.05969941616 -6.507048965e-006 29.07560158
lwrist  3.192251654e-007 -3.790274832e-007 -29.78230095
lhand  -3.52084579e-031 -36.90259933 -10.62209988
lfingers  90 7.125020027 -90
lthumb  94.80606079 -25.45889473 101.067009
rclavicle  0 -4.497500157e-015 -2.743230041e-014
rhumerus  34.88880157 -21.02129936 -45.95259857
rradius  -5.16745672e-007 2.214343908e-008 70.22149658
rwrist  0.0006954420824 -0.004670973402 -172.4530029
rhand  -3.125127546e-031 4.046840191 -6.070370197
rfingers  -90 -7.125020027 -90
rthumb  -84.41458893 -9.776463509 -60.06154251
rfemur  -11.96466446 15.12637806 12.702075
rtibia  -0.4167072475 -0.7690185308 18.92572021
rfoot  0.7623257637 -20.99348831 -36.98084259
rtoes  4.200275898 19.57700157 -102.3655624
lfemur  -6.175323009 -16.41315079 -21.37500572
ltibia  5.400283337 0.3133833408 9.921304703
lfoot  0.5197552443 -23.61618996 35.29070282
ltoes  -8.449040413 -18.19430923 -115.4417801
105
root  34.85021816 36.57945948 -14.30115587 10.21321774 -2.632000685 3.539519548
lowerback  -8.930112839 0.5572310686 0.1128277704
upperback  -3.958678484 1.299909949 -4.215340137
thorax  1.000369072 0.8298159838 -4.305339813
lowerneck  -11.58580017 -8.077939987 -5.091909885
upperneck  11.62989998 -11.43830109 7.842919827
head  6.177140236 -5.333159924 2.234829903
lclavicle  0 -4.497500157e-015 -2.743230041e-014
lhumerus  -48.36019897 30.58320045 61.87739944
lradius  -0.06182908639 -6.507048965e-006 29.0802002
lwrist  3.192251654e-007 -3.790274832e-007 -29.68580055
lhand  -3.533720219e-031 -36.6908989 -10.49639988
lfingers  90 7.125020027 -90
lthumb  94.68093872 -25.34284973 100.8294678
rclavicle  0 -4.497500157e-015 -2.743230041e-014
rhumerus  36.05289459 -21.10679817 -46.07490158
rradius  -5.16745672e-007 2.214343908e-008 68.97689819
rwrist  0.0006954420824 -0.004670973402 -172.0169983
rhand  -3.108010235e-031 3.882790089 -6.325839996
rfingers  -90 -7.125020027 -90
rthumb  -84.58394623 -9.54610157 -60.24363327
rfemur  -11.97865486 15.04976463 12.68483162
rtibia  -0.4422781169 -0.7839211822 18.956007
rfoot  0.7430027127 -20.99254417 -36.99617386
rtoes  4.170628071 19.57799911 -102.2770691
lfemur  -6.170306206 -16.40633202 -21.41456032
ltibia  5.441904068 0.3355410993 9.877835274
lfoot  0.5465878248 -23.66200066 35.2613945
ltoes  -8.445724487 -18.19580841 -115.43116
